<!DOCTYPE svg PUBLIC "-//W3C//DTD SVG 1.1//EN" "http://www.w3.org/Graphics/SVG/1.1/DTD/svg11.dtd">
<!-- Uploaded to: SVG Repo, www.svgrepo.com, Transformed by: SVG Repo Mixer Tools -->
<svg fill="#1A1414" version="1.1" id="Layer_1" xmlns="http://www.w3.org/2000/svg" xmlns:xlink="http://www.w3.org/1999/xlink" viewBox="0 0 512 512" xml:space="preserve" width="800px" height="800px" stroke="#1A1414">
<g id="SVGRepo_bgCarrier" stroke-width="0"/>
<g id="SVGRepo_tracerCarrier" stroke-linecap="round" stroke-linejoin="round"/>
<g id="SVGRepo_iconCarrier"> <g> <g> <rect x="198.525" y="175.847" width="86.509" height="19.773"/> </g> </g> <g> <g> <path d="M136.57,440.321c-24.965,0-45.559,20.399-45.559,45.363V512h276.828v-71.679H136.57z"/> </g> </g> <g> <g> <path d="M478.211,17.746c-13.207-12.445-30.475-18.701-48.64-17.628L94.766,19.967c-16.658,0.989-29.708,14.681-29.708,31.17 v68.575c0,17.032,14.747,31.422,32.202,31.422h282.936c6.826,0,12.358,5.534,12.358,12.358V512h106.282V65.687 C498.837,47.307,491.512,30.283,478.211,17.746z M123.142,111.111c-10.762,0-19.487-8.725-19.487-19.487 c0-10.762,8.725-19.487,19.487-19.487c10.762,0,19.487,8.725,19.487,19.487C142.629,102.386,133.904,111.111,123.142,111.111z M426.55,111.111c-10.763,0-19.487-8.725-19.487-19.487c0-10.762,8.724-19.487,19.487-19.487c10.762,0,19.487,8.725,19.487,19.487 C446.037,102.386,437.312,111.111,426.55,111.111z"/> </g> </g> <g> <g> <path d="M36.738,238.389c-12.811-0.718-23.575,9.476-23.575,22.308c0,12.832,10.716,23.026,23.527,22.308l107.462-6.026v-31.387 c0-0.394,0.096-0.784,0.106-1.177L36.738,238.389z"/> </g> </g> <g> <g> <path d="M289.956,220.342h-96.069c-13.71,0-25.018,11.54-25.018,25.252v43.955h145.829v-43.955 C314.697,231.882,303.667,220.342,289.956,220.342z"/> </g> </g> </g>
</svg>